<svg xmlns="http://www.w3.org/2000/svg" viewBox="0 0 64 64" role="img" aria-label="OctopusTrack tentacles favicon">
  <rect width="64" height="64" rx="12" fill="#f5f5f5"/>

  <!-- Tentáculos base -->
  <path d="M6 64c0-16 6-28 17-34 3-2 7-1 9 2 2 3 2 6-1 9-8 8-10 13-10 23z" fill="#1f1f1f"/>
  <path d="M18 64c0-13 3-24 10-31 4-4 9-4 12-1 3 3 3 8-1 12-6 6-8 11-8 20z" fill="#2b2b2b"/>
  <path d="M31 64c0-16 4-31 13-40 4-4 9-4 12-1 3 3 3 8-1 12-8 8-11 16-11 29z" fill="#1f1f1f"/>
  <path d="M45 64c0-11 2-20 7-27 3-4 8-5 11-2 3 3 2 7-1 10-5 5-6 9-6 19z" fill="#2b2b2b"/>

  <!-- Curvas internas para dar efecto de estilo -->
  <path d="M13 64c0-12 3-20 9-27" stroke="#f0f0f0" stroke-width="1.4" fill="none" stroke-linecap="round"/>
  <path d="M25 64c0-10 2-17 7-24" stroke="#f0f0f0" stroke-width="1.4" fill="none" stroke-linecap="round"/>
  <path d="M38 64c0-12 2-23 8-31" stroke="#f0f0f0" stroke-width="1.4" fill="none" stroke-linecap="round"/>
  <path d="M51 64c0-8 1-14 5-20" stroke="#f0f0f0" stroke-width="1.4" fill="none" stroke-linecap="round"/>

  <!-- Ventosas -->
  <g fill="none" stroke="#f7f7f7" stroke-width="1.3">
    <circle cx="14" cy="57" r="1.6"/>
    <circle cx="16" cy="52" r="1.3"/>
    <circle cx="18" cy="47" r="1.1"/>

    <circle cx="27" cy="58" r="1.7"/>
    <circle cx="29" cy="53" r="1.3"/>
    <circle cx="31" cy="48" r="1.1"/>

    <circle cx="40" cy="58" r="1.7"/>
    <circle cx="42" cy="53" r="1.4"/>
    <circle cx="44" cy="48" r="1.2"/>
    <circle cx="46" cy="43" r="1.0"/>

    <circle cx="52" cy="58" r="1.5"/>
    <circle cx="54" cy="53" r="1.2"/>
    <circle cx="56" cy="48" r="1.0"/>
  </g>
</svg>
